<svg enable-background="new 0 0 24 24" height="512" viewBox="0 0 24 24" width="512" xmlns="http://www.w3.org/2000/svg"><path d="m17.743 14.87 1.781-1.555c.312-.272.345-.746.072-1.058-.272-.312-.746-.344-1.059-.072l-3.281 2.864c-.162.142-.256.348-.256.565s.094.423.257.565l3.281 2.863c.143.124.318.185.493.185.209 0 .417-.087.565-.257.272-.312.24-.786-.072-1.058l-1.758-1.534c2.622.079 4.733 2.268 4.733 4.962v1.909c0 .414.336.75.75.75s.751-.335.751-.749v-1.909c0-3.531-2.796-6.406-6.257-6.471z"/><path d="m9.22 0-4.86.02c-.63 0-1.22.35-1.52.9l-2.54 4.6 8.43-.02z"/><path d="m19.68 5.48-2.57-4.6c-.31-.55-.89-.9-1.53-.9l-4.86.02.51 5.5z"/><path d="m20 10.18c-.3-.12-.63-.18-.97-.18-.66 0-1.3.24-1.81.68l-3.28 2.86c-.6.52-.94 1.28-.94 2.07 0 .8.34 1.55.94 2.08l2.64 2.3-14.97.04c-.01 0-.01 0-.01 0-.86 0-1.57-.71-1.57-1.58l-.04-11.43 9.25-.02h1.5l9.25-.03z"/></svg>